<svg width="568" height="497" viewBox="0 0 568 497" fill="none" xmlns="http://www.w3.org/2000/svg">
<path d="M239.552 288.382C241.905 288.382 244.162 287.446 245.826 285.783C247.49 284.119 248.425 281.862 248.425 279.508V224.343C248.425 193.239 225.045 165.444 195.314 157.574C189.896 163.789 183.442 169.019 176.238 173.03H178.51C205.814 173.03 230.68 197.487 230.68 224.343V279.508C230.68 281.862 231.615 284.119 233.279 285.783C234.943 287.446 237.2 288.382 239.553 288.382H239.552Z" fill="#3B3355"/>
<path d="M88.5801 157.569C58.8514 165.437 35.4688 193.232 35.4688 224.338V279.503C35.4688 282.674 37.1602 285.602 39.9053 287.188C42.6505 288.772 46.0333 288.772 48.7785 287.188C51.5237 285.602 53.2151 282.674 53.2151 279.503V224.338C53.2151 197.484 78.0785 173.025 105.38 173.025H107.661H107.659C100.455 169.014 94.0003 163.782 88.5822 157.567L88.5801 157.569Z" fill="#3B3355"/>
<path d="M195.187 110.918C195.187 140.321 171.352 164.157 141.948 164.157C112.544 164.157 88.709 140.321 88.709 110.918C88.709 81.5142 112.544 57.6787 141.948 57.6787C171.352 57.6787 195.187 81.5142 195.187 110.918Z" fill="#3B3355"/>
<path d="M482.442 337.182H360.423C310.141 337.182 275.027 372.51 275.027 423.093V488.026C275.027 491.196 276.719 494.124 279.464 495.71C282.209 497.294 285.592 497.294 288.337 495.71C291.082 494.124 292.774 491.196 292.774 488.026V423.093C292.774 381.687 319.328 354.928 360.423 354.928H482.442C523.54 354.928 550.096 381.686 550.096 423.093V488.026C550.096 491.196 551.788 494.124 554.533 495.71C557.278 497.294 560.661 497.294 563.406 495.71C566.151 494.124 567.842 491.196 567.842 488.026V423.093C567.842 372.509 532.725 337.182 482.447 337.182H482.442Z" fill="#3B3355"/>
<path d="M496.874 244.011C496.874 285.666 463.106 319.436 421.45 319.436C379.793 319.436 346.025 285.668 346.025 244.011C346.025 202.355 379.793 168.587 421.45 168.587C463.106 168.587 496.874 202.355 496.874 244.011Z" fill="#3B3355"/>
<path d="M337.158 443.66C334.805 443.66 332.548 444.596 330.884 446.259C329.221 447.923 328.285 450.18 328.285 452.533V488.026C328.285 491.197 329.977 494.125 332.722 495.711C335.467 497.295 338.85 497.295 341.595 495.711C344.34 494.124 346.032 491.196 346.032 488.026V452.533C346.032 450.18 345.096 447.923 343.432 446.259C341.769 444.596 339.512 443.66 337.158 443.66Z" fill="#3B3355"/>
<path d="M514.621 488.002V452.509C514.621 449.339 512.93 446.411 510.185 444.825C507.44 443.241 504.057 443.241 501.312 444.825C498.566 446.411 496.875 449.339 496.875 452.509V488.002C496.875 491.172 498.566 494.101 501.312 495.686C504.057 497.271 507.44 497.271 510.185 495.686C512.93 494.1 514.621 491.172 514.621 488.002Z" fill="#3B3355"/>
<path d="M282.016 175.33C283.378 176.495 285.06 177.223 286.842 177.414C288.624 177.606 290.423 177.255 292 176.405L339.394 150.846H381.52C392.965 150.846 399.266 144.542 399.266 133.1V65.2138C399.3 59.7271 397.155 54.4514 393.304 50.5435C389.454 46.6356 384.209 44.4155 378.723 44.3691H277.839C272.352 44.4154 267.107 46.6355 263.257 50.5435C259.407 54.4513 257.262 59.7271 257.295 65.2138V128.665C257.295 141.933 264.427 150.848 275.042 150.848H284.664L279.423 165.631H279.425C278.826 167.321 278.752 169.151 279.216 170.883C279.678 172.615 280.654 174.166 282.015 175.333L282.016 175.33Z" fill="#3B3355"/>
<path d="M541.264 0.00101394H26.6196C19.6024 -0.0304118 12.8569 2.72212 7.86756 7.65798C2.87633 12.5919 0.0482701 19.3039 0 26.3215V332.974C0.0480619 340.01 2.88381 346.74 7.88791 351.687C12.8919 356.636 19.6521 359.396 26.6896 359.365H239.575V377.111H199.646C196.475 377.111 193.547 378.802 191.961 381.548C190.377 384.293 190.377 387.675 191.961 390.421C193.547 393.166 196.476 394.857 199.646 394.857H260.712C261.461 391.774 262.332 388.766 263.326 385.835L263.378 385.683C264.374 382.747 265.487 379.89 266.716 377.113L257.322 377.111V359.365H276.92L276.922 359.363C279.079 356.391 281.41 353.547 283.904 350.849C284.224 350.497 284.529 350.133 284.856 349.788C285.81 348.789 286.792 347.822 287.788 346.867C289.151 345.547 290.557 344.275 292.007 343.048C311.273 327.25 335.559 318.876 360.465 319.435H366.996C365.405 318.282 363.859 317.071 362.345 315.823C362.275 315.766 362.21 315.703 362.14 315.646C360.534 314.313 358.981 312.919 357.467 311.485C357.178 311.211 356.897 310.934 356.613 310.657C355.202 309.285 353.836 307.873 352.513 306.418C352.42 306.316 352.318 306.225 352.228 306.124L17.7442 306.126V26.3198C17.7867 24.0073 18.7461 21.8056 20.408 20.199C22.0717 18.5926 24.3048 17.709 26.6173 17.7459H541.262C543.575 17.7089 545.808 18.5926 547.471 20.199C549.133 21.8054 550.093 24.0071 550.135 26.3198V306.126H490.72C490.63 306.227 490.528 306.32 490.436 306.42C489.114 307.876 487.746 309.289 486.336 310.658C486.051 310.936 485.77 311.213 485.482 311.487C483.969 312.917 482.422 314.309 480.818 315.638C480.744 315.699 480.675 315.764 480.601 315.825C479.087 317.073 477.544 318.282 475.952 319.435H482.483C514.652 319.435 541.59 331.483 559.9 351.804C564.995 346.892 567.875 340.121 567.88 333.044V26.3207C567.832 19.3036 565.004 12.5912 560.013 7.65723C555.023 2.72137 548.278 -0.0309707 541.261 0.000262953L541.264 0.00101394Z" fill="#3B3355"/>
</svg>
