<svg width="471" height="568" viewBox="0 0 471 568" fill="none" xmlns="http://www.w3.org/2000/svg">
<path d="M14.0551 198.767C14.996 200.926 16.7558 202.621 18.9502 203.479C21.1427 204.336 23.5865 204.286 25.7421 203.338L451.655 17.0012C454.164 15.9031 456.025 13.7089 456.698 11.0564C457.371 8.4018 456.783 5.58623 455.101 3.42543C453.42 1.26444 450.836 0 448.098 0H295.83C292.659 0 289.729 1.69144 288.145 4.43659C286.561 7.18174 286.561 10.5645 288.145 13.3098C289.729 16.055 292.659 17.7464 295.83 17.7464H405.682L18.6313 187.08C16.4758 188.025 14.7825 189.784 13.9248 191.977C13.0671 194.168 13.1151 196.609 14.0579 198.765L14.0551 198.767Z" fill="#3B3355"/>
<path d="M301.688 141.969C301.688 144.106 301.798 146.241 302.017 148.367C302.063 148.824 302.166 149.264 302.224 149.719C302.431 151.36 302.651 152.998 302.983 154.597C303.065 154.985 303.19 155.357 303.279 155.743C303.654 157.391 304.054 159.028 304.558 160.622C304.642 160.885 304.756 161.134 304.841 161.395C305.405 163.095 306.011 164.779 306.714 166.412C306.764 166.527 306.827 166.634 306.877 166.748C307.649 168.514 308.488 170.244 309.416 171.919L309.433 171.947H309.435C312.378 177.248 316.077 182.095 320.414 186.336C331.989 197.708 347.571 204.082 363.8 204.082C380.029 204.082 395.61 197.708 407.186 186.336C411.523 182.095 415.222 177.248 418.165 171.947L418.181 171.919C419.109 170.244 419.949 168.514 420.721 166.748C420.771 166.634 420.834 166.527 420.884 166.412C421.588 164.78 422.193 163.096 422.757 161.395C422.844 161.134 422.956 160.885 423.04 160.622C423.544 159.029 423.944 157.389 424.319 155.743C424.407 155.357 424.533 154.985 424.615 154.597C424.947 152.998 425.167 151.36 425.374 149.719C425.432 149.264 425.535 148.824 425.581 148.367H425.583C427.336 131.429 422.058 114.512 410.985 101.576C399.91 88.6397 384.01 80.8185 367.003 79.9402C349.996 79.0619 333.375 85.2049 321.027 96.9303C308.679 108.658 301.688 124.94 301.688 141.969Z" fill="#3B3355"/>
<path d="M470.294 403.726V230.701C470.279 219.654 466.145 209.008 458.703 200.843C451.26 192.678 441.044 187.579 430.043 186.544C425.562 193.158 420.121 199.07 413.899 204.082H425.928C432.986 204.089 439.752 206.897 444.743 211.886C449.732 216.877 452.541 223.643 452.548 230.701V403.726H425.928V350.487C425.928 347.317 424.237 344.388 421.491 342.802C418.746 341.218 415.364 341.218 412.618 342.802C409.873 344.389 408.182 347.317 408.182 350.487V541.258C408.18 543.611 407.243 545.866 405.581 547.53C403.917 549.192 401.662 550.129 399.308 550.131H372.689V412.599C372.689 409.429 370.997 406.501 368.252 404.915C365.507 403.33 362.124 403.33 359.379 404.915C356.634 406.501 354.943 409.429 354.943 412.599V550.131H328.323C325.97 550.129 323.714 549.192 322.051 547.53C320.389 545.867 319.452 543.611 319.45 541.258V350.487C319.45 347.317 317.758 344.388 315.013 342.802C312.268 341.218 308.885 341.218 306.14 342.802C303.395 344.389 301.703 347.317 301.703 350.487V403.726H275.084V230.701C275.091 223.643 277.899 216.877 282.888 211.886C287.88 206.897 294.646 204.089 301.703 204.082H313.732C307.51 199.07 302.069 193.158 297.589 186.544C286.59 187.579 276.371 192.678 268.928 200.843C261.486 209.008 257.353 219.654 257.338 230.701V403.726C257.343 408.431 259.214 412.941 262.542 416.269C265.869 419.596 270.379 421.467 275.084 421.472H301.704V541.258C301.711 548.316 304.519 555.082 309.508 560.073C314.5 565.062 321.266 567.87 328.323 567.878H399.309C406.367 567.87 413.133 565.062 418.124 560.073C423.113 555.082 425.921 548.316 425.928 541.258V421.472H452.548C457.253 421.467 461.763 419.596 465.091 416.269C468.418 412.941 470.289 408.431 470.294 403.726H470.294Z" fill="#3B3355"/>
<path d="M44.3712 252.886C44.3712 255.023 44.4821 257.158 44.7002 259.284C44.7464 259.741 44.85 260.181 44.9073 260.636C45.1143 262.277 45.3343 263.915 45.667 265.514C45.7484 265.902 45.8741 266.274 45.9628 266.66C46.3381 268.307 46.7374 269.945 47.242 271.539C47.3252 271.801 47.4398 272.051 47.5248 272.312C48.0887 274.012 48.695 275.696 49.3974 277.329C49.4474 277.444 49.5102 277.551 49.5601 277.665C50.3328 279.431 51.1721 281.161 52.1001 282.836L52.1167 282.864H52.1186C55.0615 288.165 58.7604 293.012 63.0972 297.253C74.673 308.625 90.2548 314.999 106.484 314.999C122.712 314.999 138.294 308.625 149.87 297.253C154.207 293.012 157.905 288.165 160.848 282.864L160.865 282.836C161.793 281.161 162.632 279.431 163.405 277.665C163.455 277.551 163.518 277.444 163.568 277.329C164.272 275.697 164.876 274.013 165.44 272.312C165.527 272.051 165.64 271.802 165.723 271.539C166.228 269.946 166.627 268.306 167.002 266.66C167.091 266.274 167.217 265.902 167.298 265.514C167.631 263.915 167.851 262.277 168.058 260.636C168.115 260.181 168.219 259.741 168.265 259.284H168.267C170.019 242.346 164.742 225.429 153.668 212.493C142.594 199.557 126.694 191.736 109.687 190.857C92.6796 189.979 76.059 196.122 63.7109 207.847C51.3622 219.575 44.3712 235.857 44.3712 252.886Z" fill="#3B3355"/>
<path d="M0 341.617V465.842C0.00554586 470.546 1.87629 475.057 5.20371 478.384C8.53113 481.712 13.0414 483.582 17.7464 483.588H44.3659V541.266C44.3733 548.324 47.1813 555.09 52.1705 560.081C57.1618 565.07 63.9276 567.879 70.9855 567.886H141.971C149.029 567.878 155.795 565.07 160.786 560.081C165.775 555.09 168.583 548.324 168.591 541.266V483.588H195.21C199.915 483.583 204.425 481.712 207.753 478.384C211.08 475.057 212.951 470.547 212.956 465.842V341.617C212.942 330.57 208.808 319.924 201.366 311.759C193.923 303.594 183.707 298.495 172.706 297.46C168.225 304.074 162.784 309.986 156.562 314.998H168.591C175.649 315.005 182.415 317.813 187.406 322.802C192.395 327.793 195.203 334.559 195.211 341.617V465.842H168.591V430.349C168.591 427.179 166.9 424.25 164.154 422.665C161.409 421.08 158.026 421.08 155.281 422.665C152.536 424.251 150.845 427.179 150.845 430.349V541.266C150.843 543.62 149.906 545.875 148.244 547.539C146.58 549.2 144.325 550.138 141.971 550.139H115.352V474.715C115.352 471.545 113.66 468.616 110.915 467.031C108.17 465.446 104.787 465.446 102.042 467.031C99.2969 468.617 97.6055 471.545 97.6055 474.715V550.139H70.9859C68.6326 550.138 66.3774 549.2 64.7136 547.539C63.0518 545.875 62.1145 543.62 62.1127 541.266V430.349C62.1127 427.179 60.4212 424.25 57.6761 422.665C54.9309 421.08 51.5481 421.08 48.8029 422.665C46.0578 424.251 44.3663 427.179 44.3663 430.349V465.842H17.7467V341.617C17.7541 334.559 20.5621 327.793 25.5514 322.802C30.5426 317.813 37.3085 315.005 44.3663 314.998H56.395C50.1729 309.986 44.7321 304.074 40.2515 297.46C29.2525 298.495 19.0335 303.594 11.5914 311.759C4.14877 319.924 0.0155224 330.57 0.00085208 341.617H0Z" fill="#3B3355"/>
</svg>
