<svg width="568" height="533" viewBox="0 0 568 533" fill="none" xmlns="http://www.w3.org/2000/svg">
<path d="M290.216 110.401C291.591 110.401 292.948 110.082 294.177 109.464C296.673 108.214 299.189 107.054 301.727 105.981C303.897 105.064 305.614 103.325 306.5 101.142C307.385 98.9584 307.369 96.5146 306.45 94.3445C305.531 92.1761 303.788 90.4606 301.605 89.579C299.422 88.6954 296.976 88.7176 294.808 89.6381C291.93 90.8582 289.048 92.1873 286.24 93.5904H286.242C283.839 94.7902 282.11 97.0159 281.539 99.6408C280.968 102.266 281.617 105.007 283.302 107.098C284.988 109.189 287.53 110.403 290.216 110.401Z" fill="#3B3355"/>
<path d="M430.701 122.17C435.217 125.599 439.505 129.32 443.535 133.31C445.206 134.972 447.471 135.902 449.828 135.892C452.185 135.883 454.442 134.937 456.1 133.262C457.758 131.587 458.683 129.321 458.668 126.963C458.653 124.606 457.701 122.351 456.022 120.697C451.438 116.162 446.562 111.933 441.424 108.034C438.897 106.124 435.546 105.705 432.628 106.934C429.71 108.163 427.669 110.855 427.271 113.998C426.874 117.138 428.181 120.253 430.701 122.17Z" fill="#3B3355"/>
<path d="M385.07 100.005C390.561 101.446 395.953 103.243 401.21 105.384C404.146 106.58 407.497 106.12 410 104.175C412.503 102.23 413.778 99.0971 413.348 95.9581C412.915 92.8173 410.841 90.1463 407.906 88.9499C401.933 86.519 395.81 84.4782 389.575 82.8385C387.298 82.2378 384.874 82.5668 382.841 83.7536C380.806 84.9404 379.327 86.8869 378.728 89.1665C378.131 91.4439 378.462 93.8674 379.652 95.9006C380.841 97.9341 382.791 99.4112 385.07 100.005Z" fill="#3B3355"/>
<path d="M333.224 97.0375C333.634 97.0375 334.043 97.0097 334.447 96.9543C340.067 96.1779 345.731 95.7749 351.404 95.7416C354.575 95.725 357.494 94.0187 359.065 91.2644C360.635 88.51 360.616 85.1289 359.017 82.3912C357.418 79.6553 354.479 77.9786 351.309 77.9952C344.857 78.0322 338.415 78.4925 332.022 79.3724C329.026 79.7847 326.447 81.6961 325.179 84.4432C323.911 87.1883 324.129 90.3918 325.757 92.9411C327.386 95.4903 330.2 97.0338 333.224 97.0375Z" fill="#3B3355"/>
<path d="M468.271 167.521C469.687 170.357 472.509 172.222 475.674 172.412C478.839 172.603 481.865 171.091 483.612 168.445C485.359 165.8 485.562 162.424 484.144 159.589C482.741 156.777 481.231 153.982 479.662 151.283H479.663C478.064 148.553 475.133 146.878 471.97 146.891C468.805 146.904 465.886 148.601 464.311 151.344C462.734 154.089 462.738 157.465 464.322 160.204C465.705 162.585 467.021 165.024 468.271 167.521Z" fill="#3B3355"/>
<path d="M186.335 35.4927C186.335 55.0951 170.445 70.9855 150.842 70.9855C131.24 70.9855 115.35 55.0951 115.35 35.4927C115.35 15.8903 131.24 0 150.842 0C170.445 0 186.335 15.8903 186.335 35.4927Z" fill="#3B3355"/>
<path d="M544.504 275.064H413.801C400.403 275.064 390.42 289.128 390.42 301.684V309.758L370.411 322.58L346.365 307.14C344.933 306.224 343.267 305.741 341.566 305.748C339.867 305.756 338.206 306.255 336.782 307.185L312.736 322.58L288.69 307.185C287.267 306.251 285.601 305.754 283.899 305.754C282.196 305.754 280.531 306.251 279.107 307.185L255.061 322.58L231.015 307.185C229.599 306.251 227.941 305.754 226.246 305.754C224.551 305.754 222.892 306.251 221.476 307.185L197.43 322.58L177.465 309.802V297.247C177.491 292.544 175.985 287.96 173.175 284.186C170.365 280.415 166.403 277.661 161.889 276.339C159.369 275.513 156.737 275.082 154.084 275.064H23.3812C20.7285 275.082 18.0961 275.513 15.5766 276.339C11.0624 277.661 7.10096 280.415 4.29088 284.186C1.48104 287.959 -0.025558 292.544 0.00032808 297.247V523.511C0.00032808 526.681 1.69177 529.609 4.43692 531.195C7.18207 532.779 10.5649 532.779 13.3101 531.195C16.0553 529.609 17.7467 526.681 17.7467 523.511V297.247C17.7412 296.763 17.8151 296.28 17.9648 295.82C18.5157 294.435 19.7284 293.422 21.1906 293.132C21.2424 293.117 21.2978 293.093 21.3477 293.078C21.527 293.032 21.686 293.01 21.8542 292.978C21.991 292.953 22.1408 292.916 22.2665 292.897C22.3312 292.888 22.3718 292.888 22.4328 292.881H22.431C22.7508 292.84 23.0725 292.816 23.3941 292.81H154.069C154.391 292.816 154.712 292.84 155.032 292.881C155.093 292.888 155.134 292.888 155.198 292.897C155.324 292.916 155.474 292.953 155.611 292.978C155.779 293.01 155.936 293.032 156.117 293.078C156.169 293.091 156.223 293.117 156.274 293.132H156.272C157.735 293.422 158.947 294.435 159.498 295.82C159.648 296.28 159.722 296.763 159.716 297.247V501.33C159.716 503.683 160.652 505.94 162.315 507.604C163.979 509.268 166.236 510.203 168.59 510.203H399.292C401.646 510.203 403.903 509.268 405.567 507.604C407.23 505.941 408.166 503.683 408.166 501.33V301.681C408.166 297.509 411.85 292.808 413.813 292.808H544.488C546.451 292.808 550.136 297.509 550.136 301.681V523.511C550.136 526.681 551.827 529.609 554.572 531.195C557.318 532.779 560.7 532.779 563.446 531.195C566.191 529.609 567.882 526.681 567.882 523.511V301.681C567.882 289.126 557.9 275.062 544.501 275.062L544.504 275.064ZM390.423 463.942L375.206 473.69C373.777 474.588 372.124 475.065 370.437 475.065C368.749 475.065 367.096 474.588 365.667 473.69L341.577 458.251L317.531 473.645C316.104 474.568 314.44 475.06 312.739 475.06C311.038 475.06 309.375 474.568 307.948 473.645L283.901 458.251L259.855 473.645C258.432 474.579 256.766 475.076 255.064 475.076C253.361 475.076 251.696 474.579 250.272 473.645L226.226 458.251L202.224 473.645C200.801 474.579 199.135 475.076 197.433 475.076C195.73 475.076 194.065 474.579 192.641 473.645L177.468 463.935V442.896L197.433 455.677L221.479 440.282C222.895 439.349 224.553 438.851 226.248 438.851C227.944 438.851 229.602 439.349 231.018 440.282L255.064 455.677L279.11 440.282C280.533 439.349 282.199 438.851 283.901 438.851C285.604 438.851 287.27 439.349 288.693 440.282L312.739 455.677L336.785 440.282C338.209 439.352 339.87 438.853 341.569 438.846C343.27 438.838 344.935 439.321 346.368 440.238L370.414 455.677L390.423 442.853V463.942ZM390.423 419.576L375.206 429.324C373.777 430.222 372.124 430.699 370.437 430.699C368.749 430.699 367.096 430.222 365.667 429.324L341.577 413.885L317.531 429.279C316.104 430.202 314.44 430.694 312.739 430.694C311.038 430.694 309.375 430.202 307.948 429.279L283.901 413.885L259.855 429.279C258.432 430.213 256.766 430.71 255.064 430.71C253.361 430.71 251.696 430.213 250.272 429.279L226.226 413.885L202.224 429.279C200.801 430.213 199.135 430.71 197.433 430.71C195.73 430.71 194.065 430.213 192.641 429.279L177.468 419.569V398.53L197.433 411.311L221.479 395.916C222.895 394.983 224.553 394.486 226.248 394.486C227.944 394.486 229.602 394.983 231.018 395.916L255.064 411.311L279.11 395.916C280.533 394.983 282.199 394.486 283.901 394.486C285.604 394.486 287.27 394.983 288.693 395.916L312.739 411.311L336.785 395.916C338.209 394.986 339.87 394.487 341.569 394.48C343.27 394.473 344.935 394.955 346.368 395.872L370.414 411.311L390.423 398.487V419.576ZM390.423 375.21L375.206 384.958C373.777 385.856 372.124 386.333 370.437 386.333C368.749 386.333 367.096 385.856 365.667 384.958L341.577 369.519L317.531 384.914C316.107 385.847 314.442 386.344 312.739 386.344C311.037 386.344 309.371 385.847 307.948 384.914L283.901 369.519L259.855 384.914C258.432 385.847 256.766 386.344 255.064 386.344C253.361 386.344 251.696 385.847 250.272 384.914L226.226 369.519L202.224 384.914C200.801 385.847 199.135 386.344 197.433 386.344C195.73 386.344 194.065 385.847 192.641 384.914L177.468 375.203V354.164L197.433 366.945L221.479 351.55C222.895 350.617 224.553 350.12 226.248 350.12C227.944 350.12 229.602 350.617 231.018 351.55L255.064 366.945L279.11 351.55C280.537 350.628 282.201 350.136 283.901 350.136C285.602 350.136 287.266 350.628 288.693 351.55L312.739 366.945L336.785 351.55C338.209 350.621 339.87 350.121 341.569 350.114C343.27 350.107 344.935 350.589 346.368 351.506L370.414 366.945L390.423 354.122V375.21Z" fill="#3B3355"/>
<path d="M185.957 77.6155C178.531 80.6639 172.771 86.7547 170.138 94.3378C167.508 101.922 168.258 110.271 172.201 117.264C176.052 124.072 182.544 128.987 190.144 130.843L214.291 136.726C217.735 137.582 221.314 137.759 224.827 137.252L226 139.323C226 139.323 251.435 154.021 252.136 154.624C252.565 154.98 252.94 155.396 253.254 155.857L279.077 205.083C281.537 204.094 284.146 203.517 286.793 203.373C288.412 203.206 290.013 203.831 291.093 205.049C293.823 208.837 293.378 210.821 289.265 213.647L271.716 224.958C271.015 225.602 270.158 226.051 269.23 226.264C268.666 226.215 268.163 225.885 267.895 225.385L232.147 173.382C231.509 172.481 230.6 171.807 229.554 171.459L187.352 162.005C185.275 161.282 183.474 159.929 182.202 158.134L154.318 114.268C151.963 110.371 150.767 105.884 150.87 101.331C150.972 96.7799 152.368 92.3505 154.897 88.5632C153.551 88.6667 152.2 88.7296 150.845 88.7296C145.872 88.7185 140.925 88.0105 136.148 86.6241C131.208 98.8118 132.396 112.626 139.342 123.79L167.225 167.654H167.226C167.866 168.597 168.57 169.496 169.332 170.342L169.735 194.113C169.735 194.113 142.204 239.862 142.053 240.107C137.69 245.988 136.481 253.631 138.814 260.571C140.964 266.113 145.517 270.38 151.187 272.165L166.443 277.573C170.02 278.837 173.786 279.49 177.58 279.502C183.486 279.741 189.284 277.859 193.926 274.197C198.567 270.537 201.747 265.337 202.889 259.536C203.922 254.573 203.331 249.408 201.203 244.805L216.563 223.457L218.066 221.37L218.914 218.941L226.666 196.734L253.27 235.436L253.381 235.597L253.496 235.756H253.494C257.084 240.904 262.953 243.982 269.229 244.01C273.66 243.937 277.953 242.455 281.484 239.78L281.584 239.71L298.877 228.563L299.095 228.422L299.31 228.274H299.311C304.946 224.777 308.9 219.122 310.251 212.63C311.227 206.243 309.503 199.738 305.491 194.674C301.611 189.347 295.535 186.053 288.954 185.707L268.218 146.316C266.976 144.39 265.458 142.658 263.713 141.171C260.874 138.986 257.841 137.066 254.65 135.435L242.044 128.119V128.117C244.131 125.817 245.821 123.186 247.048 120.334L263.558 81.3978H263.556C266.963 73.4749 267.056 64.5184 263.813 56.5269C261.826 51.6336 258.428 47.4412 254.053 44.4853C249.675 41.5295 244.518 39.9415 239.236 39.9268H239.234C233.905 40.0303 228.712 41.6367 224.256 44.5612C219.799 47.4875 216.259 51.6133 214.044 56.4621C213.924 56.708 207.249 72.1215 207.249 72.1215C204.154 68.4946 200.477 65.4072 196.37 62.9876C193.176 68.267 189.086 72.9516 184.286 76.8316C184.857 77.0498 185.403 77.3455 185.957 77.6136L185.957 77.6155ZM202.159 213.094L177.677 247.117L178.873 247.542C182.842 248.951 186.424 251.594 185.524 255.887C185.179 257.685 184.171 259.286 182.7 260.375C181.228 261.462 179.4 261.956 177.581 261.758C175.671 261.758 156.833 255.34 156.833 255.34C153.376 254.332 156.574 250.624 158.032 247.96L187.567 198.905L187.249 180.169L211.739 185.654L202.159 213.094ZM186.822 100.407C187.504 98.2844 188.846 96.434 190.65 95.1215C192.454 93.8109 194.628 93.1084 196.858 93.1158C198.011 93.1158 199.155 93.3044 200.246 93.6722L205.875 95.5633C208.376 96.4081 211.105 96.2861 213.521 95.2195C215.937 94.1547 217.869 92.2248 218.934 89.8085L229.988 64.2613L229.986 64.2595C230.779 62.422 232.06 60.8359 233.691 59.675C235.321 58.5159 237.238 57.8227 239.235 57.6766C240.166 57.6803 241.093 57.8356 241.976 58.1351C249.084 60.5235 249.407 69.9565 247.348 74.1679L230.709 113.41C229.896 115.306 228.545 116.924 226.82 118.057C225.095 119.192 223.076 119.795 221.012 119.789C220.163 119.789 219.317 119.687 218.49 119.486L194.343 113.604C191.54 112.942 189.139 111.145 187.712 108.642C186.286 106.139 185.963 103.157 186.822 100.407L186.822 100.407Z" fill="#3B3355"/>
</svg>
