<svg width="568" height="329" viewBox="0 0 568 329" fill="none" xmlns="http://www.w3.org/2000/svg">
<path d="M8.87319 292.904H559.011C562.181 292.904 565.109 291.213 566.695 288.468C568.279 285.722 568.279 282.34 566.695 279.594C565.109 276.849 562.181 275.158 559.011 275.158H541.93C484.961 268.104 393.613 176.886 376.221 159.054L378.439 156.836C390.906 143.082 392.548 125.78 382.521 113.624C380.168 110.88 377.094 108.852 373.648 107.767C374.883 103.734 375.38 99.5097 375.112 95.3003C374.581 85.438 369.35 76.4281 361.048 71.0762C363.664 62.3176 361.697 52.8287 355.813 45.8319C352.669 42.1329 348.683 39.2416 344.189 37.4026C344.496 36.2343 344.733 35.0494 344.899 33.8533C346.038 25.3777 343.631 16.8059 338.245 10.1622C333.457 4.31155 326.484 0.671419 318.945 0.0912313C311.621 -0.511388 304.366 1.88991 298.848 6.74588L290.995 13.4005C283.541 6.83438 263.221 -5.85451 229.905 10.3393C224.579 12.8367 219.634 16.0791 215.22 19.9668L210.783 17.5267C204.017 13.7593 196.015 12.896 188.6 15.1309C181.121 17.34 174.848 22.4756 171.209 29.3725C168.598 34.3306 167.439 39.9243 167.865 45.5108C168.288 51.0993 170.277 56.4525 173.604 60.961C167.314 64.0889 162.434 69.4755 159.94 76.0455C157.305 83.0721 157.561 90.8563 160.65 97.696C160.96 98.3615 161.359 98.9383 161.714 99.5594C155.727 103.21 151.421 109.078 149.736 115.886C147.405 124.353 149.488 133.422 155.282 140.021C151.357 143.611 148.854 148.493 148.228 153.774C147.627 161.32 149.649 168.842 153.951 175.07C135.584 193.216 75.8669 250.002 24.4024 275.16H8.87456C5.70425 275.16 2.77596 276.851 1.19014 279.596C-0.39411 282.341 -0.39411 285.724 1.19014 288.469C2.77624 291.214 5.70439 292.906 8.87456 292.906L8.87319 292.904ZM207.945 275.158C245.434 226.798 264.246 211.891 268.95 211.091C272.708 210.93 276.453 210.575 280.174 210.026C300.087 230.355 318.475 252.124 335.188 275.153L207.945 275.158ZM237.67 26.1786C258.611 16.0187 271.343 21.0322 276.978 24.8477L254.795 43.3484C254.194 43.3909 253.599 43.4963 253.02 43.6589C234.12 49.2048 223.827 45.123 222.496 41.7512C221.166 38.3794 225.425 32.1682 237.669 26.1789L237.67 26.1786ZM186.958 37.5808C188.374 34.8782 190.821 32.8632 193.746 31.9909C196.582 31.1498 199.635 31.4863 202.22 32.9226L205.37 34.6529C204.065 39.0155 204.203 43.6851 205.769 47.9627C209.096 56.5699 218.768 63.3135 234.074 63.8454L244.544 74.8037C246.107 76.3916 246.107 78.939 244.544 80.527C243.384 81.7286 241.554 81.9837 240.108 81.1481L191.35 53.3308C188.735 51.7724 186.819 49.2676 186 46.3359C185.183 43.4022 185.525 40.2669 186.958 37.5808ZM176.62 82.2572C177.613 79.5675 179.713 77.4344 182.388 76.4009C184.878 75.4452 187.659 75.606 190.019 76.8445L233.054 99.0275C234.742 99.9758 236.014 101.521 236.622 103.361C237.23 105.198 237.129 107.198 236.337 108.966C235.674 110.657 234.369 112.016 232.705 112.748C231.043 113.478 229.159 113.522 227.464 112.87L182.433 95.8777C179.928 94.9294 177.913 93.0087 176.843 90.5538C175.666 87.9288 175.584 84.9417 176.621 82.2575L176.62 82.2572ZM166.993 120.367C167.568 117.883 169.183 115.764 171.429 114.556C173.494 113.448 175.936 113.286 178.129 114.112L220.587 129.906C223.789 131.221 225.447 134.77 224.402 138.07C223.654 141.203 220.546 143.171 217.393 142.506L173.471 131.814C171.204 131.233 169.26 129.782 168.058 127.777C166.688 125.564 166.287 122.885 166.949 120.368L166.993 120.367ZM165.839 155.86C165.958 154.605 166.603 153.461 167.614 152.71C168.494 152.065 169.612 151.838 170.675 152.089L203.462 159.41C204.748 159.777 205.539 161.07 205.281 162.382C205.144 163.519 204.162 164.366 203.018 164.334H201.51C194.766 164.822 176.265 165.976 169.211 165.887C166.882 163.044 165.682 159.443 165.839 155.771L165.839 155.86ZM170.586 183.633C179.903 183.633 198.315 182.347 202.086 182.081C207.001 182.339 211.837 180.768 215.664 177.672C219.49 174.575 222.034 170.172 222.805 165.31C223.045 163.514 223.045 161.695 222.805 159.897C227.099 159.09 231.09 157.119 234.346 154.202C237.599 151.283 239.991 147.53 241.261 143.349C242.745 138.447 242.653 133.2 240.995 128.353C246.106 125.759 250.164 121.482 252.485 116.241C255.264 109.98 255.408 102.866 252.885 96.498C254.497 95.6143 255.988 94.5255 257.321 93.2593C261.222 89.2626 263.445 83.9237 263.536 78.3376C263.629 72.753 261.579 67.3458 257.809 63.2234C258.778 62.8777 259.678 62.3675 260.471 61.715L310.559 20.2774C312.488 18.5527 315.03 17.6746 317.613 17.8373C320.369 18.0499 322.918 19.3809 324.667 21.5197C326.878 24.3462 327.854 27.9453 327.373 31.5021C327.155 33.2287 326.515 34.8739 325.51 36.2936C324.132 36.948 322.85 37.7836 321.694 38.7781C319.945 40.3032 318.862 42.4549 318.681 44.7674C318.498 47.0818 319.23 49.3759 320.718 51.1561C322.385 52.7366 324.511 53.7515 326.789 54.0547C329.068 54.3578 331.384 53.9327 333.407 52.842C336.837 53.0749 340.034 54.674 342.28 57.2786C344.091 59.447 344.855 62.3048 344.365 65.087C343.936 67.7693 342.3 70.1076 339.928 71.4312C337.697 72.5015 336.015 74.4536 335.286 76.8181C334.558 79.1806 334.848 81.7426 336.089 83.8816C337.329 86.0222 339.407 87.5473 341.821 88.0889C344.234 88.6324 346.764 88.1407 348.801 86.7376C349.378 86.3827 349.955 85.9834 350.532 85.5841C354.619 87.7303 357.255 91.8876 357.453 96.4979C357.928 100.698 356.514 104.89 353.593 107.945C351.264 109.562 349.848 112.196 349.783 115.03C349.718 117.866 351.014 120.562 353.267 122.282C355.521 124.005 358.46 124.547 361.18 123.739C364.063 123.739 367.968 124.005 368.855 125.025C373.957 131.148 370.363 139.356 365.394 144.812C365.039 145.212 327.817 183.766 281.499 191.929C277.103 192.731 272.655 193.221 268.189 193.393C253.948 193.881 226.263 221.432 185.581 275.159H60.2917C111.221 242.638 160.561 193.658 170.584 183.545L170.586 183.633Z" fill="#3B3355"/>
<path d="M8.87261 328.398H559.01C562.18 328.398 565.109 326.706 566.695 323.961C568.279 321.216 568.279 317.833 566.695 315.088C565.108 312.343 562.18 310.651 559.01 310.651H8.87261C5.7023 310.651 2.77401 312.343 1.18819 315.088C-0.396064 317.833 -0.396064 321.216 1.18819 323.961C2.77429 326.706 5.70244 328.398 8.87261 328.398Z" fill="#3B3355"/>
</svg>
