<svg width="252" height="50" viewBox="0 0 252 50" fill="none" xmlns="http://www.w3.org/2000/svg">
<path d="M23.8637 12.5L30.7188 13.7955L36.3637 12.5L23.8637 0L22.1392 5.92614L23.8637 12.5Z" fill="white"/>
<path fill-rule="evenodd" clip-rule="evenodd" d="M23.8636 0V12.5H36.3636V46.5909C36.3636 48.4744 34.8381 50 32.9545 50H3.40909C1.52557 50 0 48.4744 0 46.5909V3.40909C0 1.52557 1.52557 0 3.40909 0H23.8636ZM7.95455 34.375C7.95455 35.3153 8.71875 36.0795 9.65909 36.0795C10.5994 36.0795 11.3636 35.3153 11.3636 34.375C11.3636 33.4347 10.5994 32.6705 9.65909 32.6705C8.71875 32.6705 7.95455 33.4347 7.95455 34.375ZM7.95455 27.5568C7.95455 28.4972 8.71875 29.2614 9.65909 29.2614C10.5994 29.2614 11.3636 28.4972 11.3636 27.5568C11.3636 26.6165 10.5994 25.8523 9.65909 25.8523C8.71875 25.8523 7.95455 26.6165 7.95455 27.5568ZM7.95455 20.7386C7.95455 21.679 8.71875 22.4432 9.65909 22.4432C10.5994 22.4432 11.3636 21.679 11.3636 20.7386C11.3636 19.7983 10.5994 19.0341 9.65909 19.0341C8.71875 19.0341 7.95455 19.7983 7.95455 20.7386ZM14.2045 35.7955H28.4091V32.9545H14.2045V35.7955ZM14.2045 28.9773H28.4091V26.1364H14.2045V28.9773ZM14.2045 22.1591H28.4091V19.3182H14.2045V22.1591Z" fill="white"/>
<path d="M61.15 20.15C60.57 18.93 59.73 17.99 58.63 17.33C57.53 16.65 56.25 16.31 54.79 16.31C53.33 16.31 52.01 16.65 50.83 17.33C49.67 17.99 48.75 18.95 48.07 20.21C47.41 21.45 47.08 22.89 47.08 24.53C47.08 26.17 47.41 27.61 48.07 28.85C48.75 30.09 49.67 31.05 50.83 31.73C52.01 32.39 53.33 32.72 54.79 32.72C56.83 32.72 58.51 32.11 59.83 30.89C61.15 29.67 61.92 28.02 62.14 25.94H53.8V23.72H65.05V25.82C64.89 27.54 64.35 29.12 63.43 30.56C62.51 31.98 61.3 33.11 59.8 33.95C58.3 34.77 56.63 35.18 54.79 35.18C52.85 35.18 51.08 34.73 49.48 33.83C47.88 32.91 46.61 31.64 45.67 30.02C44.75 28.4 44.29 26.57 44.29 24.53C44.29 22.49 44.75 20.66 45.67 19.04C46.61 17.4 47.88 16.13 49.48 15.23C51.08 14.31 52.85 13.85 54.79 13.85C57.01 13.85 58.97 14.4 60.67 15.5C62.39 16.6 63.64 18.15 64.42 20.15H61.15ZM75.8296 35.27C74.2896 35.27 72.8896 34.92 71.6296 34.22C70.3896 33.52 69.4096 32.53 68.6896 31.25C67.9896 29.95 67.6396 28.45 67.6396 26.75C67.6396 25.07 67.9996 23.59 68.7196 22.31C69.4596 21.01 70.4596 20.02 71.7196 19.34C72.9796 18.64 74.3896 18.29 75.9496 18.29C77.5096 18.29 78.9196 18.64 80.1796 19.34C81.4396 20.02 82.4296 21 83.1496 22.28C83.8896 23.56 84.2596 25.05 84.2596 26.75C84.2596 28.45 83.8796 29.95 83.1196 31.25C82.3796 32.53 81.3696 33.52 80.0896 34.22C78.8096 34.92 77.3896 35.27 75.8296 35.27ZM75.8296 32.87C76.8096 32.87 77.7296 32.64 78.5896 32.18C79.4496 31.72 80.1396 31.03 80.6596 30.11C81.1996 29.19 81.4696 28.07 81.4696 26.75C81.4696 25.43 81.2096 24.31 80.6896 23.39C80.1696 22.47 79.4896 21.79 78.6496 21.35C77.8096 20.89 76.8996 20.66 75.9196 20.66C74.9196 20.66 73.9996 20.89 73.1596 21.35C72.3396 21.79 71.6796 22.47 71.1796 23.39C70.6796 24.31 70.4296 25.43 70.4296 26.75C70.4296 28.09 70.6696 29.22 71.1496 30.14C71.6496 31.06 72.3096 31.75 73.1296 32.21C73.9496 32.65 74.8496 32.87 75.8296 32.87ZM95.0191 35.27C93.4791 35.27 92.0791 34.92 90.8191 34.22C89.5791 33.52 88.5991 32.53 87.8791 31.25C87.1791 29.95 86.8291 28.45 86.8291 26.75C86.8291 25.07 87.1891 23.59 87.9091 22.31C88.6491 21.01 89.6491 20.02 90.9091 19.34C92.1691 18.64 93.5791 18.29 95.1391 18.29C96.6991 18.29 98.1091 18.64 99.3691 19.34C100.629 20.02 101.619 21 102.339 22.28C103.079 23.56 103.449 25.05 103.449 26.75C103.449 28.45 103.069 29.95 102.309 31.25C101.569 32.53 100.559 33.52 99.2791 34.22C97.9991 34.92 96.5791 35.27 95.0191 35.27ZM95.0191 32.87C95.9991 32.87 96.9191 32.64 97.7791 32.18C98.6391 31.72 99.3291 31.03 99.8491 30.11C100.389 29.19 100.659 28.07 100.659 26.75C100.659 25.43 100.399 24.31 99.8791 23.39C99.3591 22.47 98.6791 21.79 97.8391 21.35C96.9991 20.89 96.0891 20.66 95.1091 20.66C94.1091 20.66 93.1891 20.89 92.3491 21.35C91.5291 21.79 90.8691 22.47 90.3691 23.39C89.8691 24.31 89.6191 25.43 89.6191 26.75C89.6191 28.09 89.8591 29.22 90.3391 30.14C90.8391 31.06 91.4991 31.75 92.3191 32.21C93.1391 32.65 94.0391 32.87 95.0191 32.87ZM113.819 18.29C115.239 18.29 116.479 18.6 117.539 19.22C118.619 19.84 119.419 20.62 119.939 21.56V18.56H122.699V35.36C122.699 36.86 122.379 38.19 121.739 39.35C121.099 40.53 120.179 41.45 118.979 42.11C117.799 42.77 116.419 43.1 114.839 43.1C112.679 43.1 110.879 42.59 109.439 41.57C107.999 40.55 107.149 39.16 106.889 37.4H109.589C109.889 38.4 110.509 39.2 111.449 39.8C112.389 40.42 113.519 40.73 114.839 40.73C116.339 40.73 117.559 40.26 118.499 39.32C119.459 38.38 119.939 37.06 119.939 35.36V31.91C119.399 32.87 118.599 33.67 117.539 34.31C116.479 34.95 115.239 35.27 113.819 35.27C112.359 35.27 111.029 34.91 109.829 34.19C108.649 33.47 107.719 32.46 107.039 31.16C106.359 29.86 106.019 28.38 106.019 26.72C106.019 25.04 106.359 23.57 107.039 22.31C107.719 21.03 108.649 20.04 109.829 19.34C111.029 18.64 112.359 18.29 113.819 18.29ZM119.939 26.75C119.939 25.51 119.689 24.43 119.189 23.51C118.689 22.59 118.009 21.89 117.149 21.41C116.309 20.91 115.379 20.66 114.359 20.66C113.339 20.66 112.409 20.9 111.569 21.38C110.729 21.86 110.059 22.56 109.559 23.48C109.059 24.4 108.809 25.48 108.809 26.72C108.809 27.98 109.059 29.08 109.559 30.02C110.059 30.94 110.729 31.65 111.569 32.15C112.409 32.63 113.339 32.87 114.359 32.87C115.379 32.87 116.309 32.63 117.149 32.15C118.009 31.65 118.689 30.94 119.189 30.02C119.689 29.08 119.939 27.99 119.939 26.75ZM130.042 12.8V35H127.312V12.8H130.042ZM149.695 26.15C149.695 26.67 149.665 27.22 149.605 27.8H136.465C136.565 29.42 137.115 30.69 138.115 31.61C139.135 32.51 140.365 32.96 141.805 32.96C142.985 32.96 143.965 32.69 144.745 32.15C145.545 31.59 146.105 30.85 146.425 29.93H149.365C148.925 31.51 148.045 32.8 146.725 33.8C145.405 34.78 143.765 35.27 141.805 35.27C140.245 35.27 138.845 34.92 137.605 34.22C136.385 33.52 135.425 32.53 134.725 31.25C134.025 29.95 133.675 28.45 133.675 26.75C133.675 25.05 134.015 23.56 134.695 22.28C135.375 21 136.325 20.02 137.545 19.34C138.785 18.64 140.205 18.29 141.805 18.29C143.365 18.29 144.745 18.63 145.945 19.31C147.145 19.99 148.065 20.93 148.705 22.13C149.365 23.31 149.695 24.65 149.695 26.15ZM146.875 25.58C146.875 24.54 146.645 23.65 146.185 22.91C145.725 22.15 145.095 21.58 144.295 21.2C143.515 20.8 142.645 20.6 141.685 20.6C140.305 20.6 139.125 21.04 138.145 21.92C137.185 22.8 136.635 24.02 136.495 25.58H146.875Z" fill="white"/>
<path d="M173.116 14.09V16.31H164.026V23.36H171.406V25.58H164.026V35H161.296V14.09H173.116ZM183.584 35.27C182.044 35.27 180.644 34.92 179.384 34.22C178.144 33.52 177.164 32.53 176.444 31.25C175.744 29.95 175.394 28.45 175.394 26.75C175.394 25.07 175.754 23.59 176.474 22.31C177.214 21.01 178.214 20.02 179.474 19.34C180.734 18.64 182.144 18.29 183.704 18.29C185.264 18.29 186.674 18.64 187.934 19.34C189.194 20.02 190.184 21 190.904 22.28C191.644 23.56 192.014 25.05 192.014 26.75C192.014 28.45 191.634 29.95 190.874 31.25C190.134 32.53 189.124 33.52 187.844 34.22C186.564 34.92 185.144 35.27 183.584 35.27ZM183.584 32.87C184.564 32.87 185.484 32.64 186.344 32.18C187.204 31.72 187.894 31.03 188.414 30.11C188.954 29.19 189.224 28.07 189.224 26.75C189.224 25.43 188.964 24.31 188.444 23.39C187.924 22.47 187.244 21.79 186.404 21.35C185.564 20.89 184.654 20.66 183.674 20.66C182.674 20.66 181.754 20.89 180.914 21.35C180.094 21.79 179.434 22.47 178.934 23.39C178.434 24.31 178.184 25.43 178.184 26.75C178.184 28.09 178.424 29.22 178.904 30.14C179.404 31.06 180.064 31.75 180.884 32.21C181.704 32.65 182.604 32.87 183.584 32.87ZM198.333 21.23C198.813 20.29 199.493 19.56 200.373 19.04C201.273 18.52 202.363 18.26 203.643 18.26V21.08H202.923C199.863 21.08 198.333 22.74 198.333 26.06V35H195.603V18.56H198.333V21.23ZM226.564 18.26C227.844 18.26 228.984 18.53 229.984 19.07C230.984 19.59 231.774 20.38 232.354 21.44C232.934 22.5 233.224 23.79 233.224 25.31V35H230.524V25.7C230.524 24.06 230.114 22.81 229.294 21.95C228.494 21.07 227.404 20.63 226.024 20.63C224.604 20.63 223.474 21.09 222.634 22.01C221.794 22.91 221.374 24.22 221.374 25.94V35H218.674V25.7C218.674 24.06 218.264 22.81 217.444 21.95C216.644 21.07 215.554 20.63 214.174 20.63C212.754 20.63 211.624 21.09 210.784 22.01C209.944 22.91 209.524 24.22 209.524 25.94V35H206.794V18.56H209.524V20.93C210.064 20.07 210.784 19.41 211.684 18.95C212.604 18.49 213.614 18.26 214.714 18.26C216.094 18.26 217.314 18.57 218.374 19.19C219.434 19.81 220.224 20.72 220.744 21.92C221.204 20.76 221.964 19.86 223.024 19.22C224.084 18.58 225.264 18.26 226.564 18.26ZM243.523 35.27C242.263 35.27 241.133 35.06 240.133 34.64C239.133 34.2 238.343 33.6 237.763 32.84C237.183 32.06 236.863 31.17 236.803 30.17H239.623C239.703 30.99 240.083 31.66 240.763 32.18C241.463 32.7 242.373 32.96 243.493 32.96C244.533 32.96 245.353 32.73 245.953 32.27C246.553 31.81 246.853 31.23 246.853 30.53C246.853 29.81 246.533 29.28 245.893 28.94C245.253 28.58 244.263 28.23 242.923 27.89C241.703 27.57 240.703 27.25 239.923 26.93C239.163 26.59 238.503 26.1 237.943 25.46C237.403 24.8 237.133 23.94 237.133 22.88C237.133 22.04 237.383 21.27 237.883 20.57C238.383 19.87 239.093 19.32 240.013 18.92C240.933 18.5 241.983 18.29 243.163 18.29C244.983 18.29 246.453 18.75 247.573 19.67C248.693 20.59 249.293 21.85 249.373 23.45H246.643C246.583 22.59 246.233 21.9 245.593 21.38C244.973 20.86 244.133 20.6 243.073 20.6C242.093 20.6 241.313 20.81 240.733 21.23C240.153 21.65 239.863 22.2 239.863 22.88C239.863 23.42 240.033 23.87 240.373 24.23C240.733 24.57 241.173 24.85 241.693 25.07C242.233 25.27 242.973 25.5 243.913 25.76C245.093 26.08 246.053 26.4 246.793 26.72C247.533 27.02 248.163 27.48 248.683 28.1C249.223 28.72 249.503 29.53 249.523 30.53C249.523 31.43 249.273 32.24 248.773 32.96C248.273 33.68 247.563 34.25 246.643 34.67C245.743 35.07 244.703 35.27 243.523 35.27Z" fill="white" fill-opacity="0.8"/>
</svg>
