<svg width="168" height="50" viewBox="0 0 168 50" fill="none" xmlns="http://www.w3.org/2000/svg">
<path fill-rule="evenodd" clip-rule="evenodd" d="M39.1677 0H10.8314C4.85342 0 0 4.85351 0 10.8316V39.1684C0 45.1465 4.85342 50 10.8314 50H39.1677C45.1457 50 49.9991 45.1465 49.9991 39.1684V10.8316C49.9991 4.85351 45.1457 0 39.1677 0ZM29.2537 6.24446H34.7434L44.8054 12.4889L34.7434 43.7556H29.2537L33.826 15.182L23.764 43.7556H18.2743L23.3053 16.9577L12.7846 43.7556H7.29493L12.7846 18.7482L7.29493 6.24446H12.7846L23.3053 16.0699L18.2743 6.24446H23.764L33.826 14.2794L29.2537 6.24446Z" fill="white"/>
<path fill-rule="evenodd" clip-rule="evenodd" d="M110.689 40.6008L104.549 39.1359V14.4096L110.689 13.2406V40.6008ZM153.645 34.7707C149.191 34.7855 145.581 31.1897 145.551 26.7357V26.6914C145.551 22.3114 149.147 18.7156 153.63 18.7156C158.114 18.7156 161.709 22.3114 161.709 26.6914C161.724 31.1453 158.114 34.7559 153.675 34.7707H153.645ZM167.569 26.6914C167.569 34.3859 161.339 40.6156 153.645 40.6156C145.951 40.6156 139.721 34.3859 139.721 26.6914C139.721 19.1004 145.965 12.8707 153.66 12.8707C161.354 12.8707 167.569 19.1004 167.569 26.6914ZM88.5677 39.1507L94.6049 40.4084V23.7615C94.6049 15.771 88.3754 12.9595 84.0842 12.9595C81.258 12.9595 78.9201 13.6402 76.8781 15.6822C74.7325 13.6402 72.2022 12.8559 70.1602 12.8559C67.1416 12.8559 64.6114 14.1137 62.8505 16.2593V13.433L56.7097 14.602V39.1359L62.8505 40.3936V23.5691C62.8505 20.8464 64.8037 18.9968 67.8075 18.9968C70.6337 18.9968 72.6757 20.8464 72.6757 23.5691V39.1507L78.7129 40.4084V23.5691C78.7129 20.8464 80.7549 18.9968 83.6847 18.9968C86.5109 18.9968 88.5529 20.8464 88.5529 23.5691L88.5677 39.1507ZM135.134 12.8707L131.523 13.359C124.806 14.9127 120.426 17.0583 120.426 24.457V39.1507L126.566 40.3196V25.33C126.566 21.9266 128.52 20.3581 131.538 19.781L135.149 19.2039L135.134 12.8707ZM104.844 2.73456C103.38 4.22909 103.38 6.59665 104.844 8.09118C106.339 9.63009 108.81 9.6449 110.334 8.15037L110.393 8.09118C111.858 6.61145 111.858 4.21429 110.393 2.73456C108.825 1.26963 106.398 1.26963 104.844 2.73456Z" fill="white"/>
</svg>
