<svg width="165" height="50" viewBox="0 0 165 50" fill="none" xmlns="http://www.w3.org/2000/svg">
<g clip-path="url(#clip0_739157_147)">
<path fill-rule="evenodd" clip-rule="evenodd" d="M50 25C50 38.8071 38.8071 50 25 50C11.1929 50 0 38.8071 0 25C0 11.1929 11.1929 0 25 0C38.8071 0 50 11.1929 50 25ZM8.95956 28.9215V17.173C8.96039 17.0579 8.98393 16.9441 9.02884 16.8382C9.07374 16.7322 9.13912 16.6362 9.22123 16.5555C9.30334 16.4749 9.40057 16.4113 9.50732 16.3683C9.61408 16.3253 9.72827 16.3038 9.84335 16.3051H26.9634C28.2376 16.3 29.4618 16.8011 30.3668 17.6982C31.2718 18.5952 31.7836 19.8149 31.7898 21.0892V32.8377C31.7881 33.0692 31.6947 33.2906 31.53 33.4533C31.3653 33.616 31.1428 33.7067 30.9113 33.7056H13.786C12.5117 33.7107 11.2876 33.2096 10.3826 32.3125C9.47755 31.4155 8.96573 30.1958 8.95956 28.9215ZM39.9503 16.5909L32.88 21.756V28.2653L39.9503 33.4188C40.4583 33.8009 41.0404 33.9279 41.0404 32.88V17.1307C41.0404 16.2098 40.5641 16.0818 39.9503 16.5909Z" fill="white"/>
</g>
<path fill-rule="evenodd" clip-rule="evenodd" d="M143.608 19.4969C144.033 20.2305 144.172 21.0653 144.218 22.0037L144.279 23.2545V32.0008L144.34 33.2529C144.464 35.2977 145.972 36.8097 148.033 36.9383L149.279 37V23.2545L149.341 22.0037C149.392 21.0758 149.53 20.2253 149.962 19.4864C150.402 18.7284 151.034 18.0996 151.794 17.663C152.554 17.2265 153.416 16.9975 154.293 16.9991C155.169 17.0007 156.03 17.2328 156.789 17.6721C157.547 18.1115 158.177 18.7426 158.614 19.5021C159.04 20.2358 159.172 21.0863 159.224 22.0037L159.285 23.2505V32.0008L159.347 33.2529C159.476 35.3082 160.972 36.8202 163.04 36.9383L164.286 37V22.0037C164.286 19.3519 163.233 16.8087 161.357 14.9333C159.482 13.0578 156.938 12.0037 154.286 12.0026C152.866 12.0011 151.462 12.3025 150.168 12.8867C148.874 13.4709 147.72 14.3243 146.782 15.3901C145.844 14.3248 144.69 13.4715 143.396 12.8872C142.102 12.3028 140.699 12.0008 139.279 12.0013C137.202 12.0013 135.274 12.6313 133.678 13.7193C132.704 12.6326 130.524 12.0013 129.273 12.0013V37L130.524 36.9383C132.617 36.8005 134.13 35.3292 134.211 33.2529L134.278 32.0008V23.2545L134.34 22.0037C134.392 21.06 134.523 20.2305 134.95 19.4916C135.391 18.7342 136.022 18.1055 136.782 17.6684C137.541 17.2313 138.402 17.001 139.279 17.0005C140.156 17.0007 141.018 17.2315 141.777 17.6696C142.537 18.1078 143.168 18.7379 143.608 19.4969ZM58.0009 36.9396L59.2522 37H78.0073L77.9456 35.7532C77.7762 33.6978 76.3202 32.1963 74.2576 32.0625L73.0064 32.0008H61.7546L76.7561 16.9992L76.6944 15.7537C76.5972 13.6773 75.0795 12.1772 73.0064 12.063L71.7551 12.0066L53 12.0013L53.0617 13.2521C53.2258 15.2877 54.7029 16.8207 56.7484 16.9388L58.0009 17.0005H69.2527L54.2512 32.0021L54.3129 33.2529C54.4363 35.3135 55.9239 36.8058 58.0009 36.9383V36.9396ZM124.364 15.6605C125.525 16.8211 126.447 18.1991 127.075 19.7157C127.704 21.2323 128.027 22.8578 128.027 24.4993C128.027 26.1409 127.704 27.7664 127.075 29.283C126.447 30.7996 125.525 32.1776 124.364 33.3382C122.018 35.6817 118.837 36.9981 115.52 36.9981C112.204 36.9981 109.023 35.6817 106.676 33.3382C101.794 28.4571 101.794 20.5416 106.676 15.6605C107.837 14.5002 109.214 13.5798 110.73 12.9517C112.246 12.3237 113.871 12.0003 115.512 12C117.156 11.9989 118.784 12.3217 120.303 12.95C121.822 13.5783 123.202 14.4998 124.364 15.6618V15.6605ZM120.826 19.2002C122.232 20.6072 123.022 22.5149 123.022 24.5039C123.022 26.493 122.232 28.4006 120.826 29.8076C119.418 31.2136 117.51 32.0033 115.52 32.0033C113.53 32.0033 111.622 31.2136 110.215 29.8076C108.808 28.4006 108.018 26.493 108.018 24.5039C108.018 22.5149 108.808 20.6072 110.215 19.2002C111.622 17.7943 113.53 17.0045 115.52 17.0045C117.51 17.0045 119.418 17.7943 120.826 19.2002ZM89.2696 12C90.9108 12.0004 92.5358 12.324 94.0519 12.9523C95.568 13.5806 96.9454 14.5013 98.1056 15.6618C102.99 20.5416 102.99 28.4584 98.1056 33.3382C95.7594 35.6817 92.5784 36.9981 89.2617 36.9981C85.945 36.9981 82.764 35.6817 80.4178 33.3382C75.5351 28.4571 75.5351 20.5416 80.4178 15.6605C81.5781 14.5002 82.9555 13.5798 84.4716 12.9517C85.9877 12.3237 87.6127 12.0003 89.2538 12H89.2696ZM94.5672 19.1976C95.974 20.6047 96.7643 22.5126 96.7643 24.502C96.7643 26.4913 95.974 28.3993 94.5672 29.8063C93.1597 31.2123 91.2514 32.002 89.2617 32.002C87.272 32.002 85.3636 31.2123 83.9562 29.8063C82.5497 28.3993 81.7597 26.4917 81.7597 24.5026C81.7597 22.5136 82.5497 20.6059 83.9562 19.1989C85.3636 17.793 87.272 17.0032 89.2617 17.0032C91.2514 17.0032 93.1597 17.7917 94.5672 19.1976Z" fill="white"/>
<defs>
<clipPath id="clip0_739157_147">
<rect width="50" height="50" fill="white"/>
</clipPath>
</defs>
</svg>
