<svg width="229" height="109" viewBox="0 0 229 109" fill="none" xmlns="http://www.w3.org/2000/svg">
<path d="M110.872 45.776H120.088V50H105.304V19.712H119.704V23.936H110.872V32.336H118.312V36.608H110.872V45.776ZM132.377 17.888H137.849V50H132.473V47.648C132.089 49.216 130.953 50 129.065 50H127.577C124.313 50 122.681 48.416 122.681 45.248V31.136C122.681 27.968 124.313 26.384 127.577 26.384H129.065C130.793 26.384 131.897 27.056 132.377 28.4V17.888ZM129.449 45.776H130.889C131.881 45.776 132.377 45.248 132.377 44.192V32.24C132.377 31.632 132.265 31.216 132.041 30.992C131.817 30.736 131.433 30.608 130.889 30.608H129.449C128.937 30.608 128.585 30.704 128.393 30.896C128.201 31.056 128.105 31.392 128.105 31.904V44.48C128.105 44.992 128.201 45.344 128.393 45.536C128.585 45.696 128.937 45.776 129.449 45.776ZM151.508 26.432H156.98V50H151.604V47.648C151.22 49.216 150.084 50 148.196 50H146.708C143.444 50 141.812 48.416 141.812 45.248V26.432H147.236V44.48C147.236 44.992 147.332 45.344 147.524 45.536C147.716 45.696 148.068 45.776 148.58 45.776H150.02C151.012 45.776 151.508 45.248 151.508 44.192V26.432ZM170.68 22.16H168.52C168.008 22.16 167.656 22.256 167.464 22.448C167.272 22.608 167.176 22.944 167.176 23.456V26.432H170.68V30.656H167.176V50H161.752V30.656H159.352V26.432H161.752V22.64C161.752 19.472 163.48 17.888 166.936 17.888H170.68V22.16ZM177.882 26.432H183.306C186.698 26.432 188.394 28.016 188.394 31.184V45.248C188.394 48.416 186.698 50 183.306 50H177.882C174.458 50 172.746 48.416 172.746 45.248V31.184C172.746 28.016 174.458 26.432 177.882 26.432ZM183.066 44.624V31.808C183.066 31.296 182.97 30.96 182.778 30.8C182.586 30.608 182.218 30.512 181.674 30.512H179.466C178.922 30.512 178.554 30.608 178.362 30.8C178.17 30.96 178.074 31.296 178.074 31.808V44.624C178.074 45.136 178.17 45.488 178.362 45.68C178.554 45.84 178.922 45.92 179.466 45.92H181.674C182.218 45.92 182.586 45.84 182.778 45.68C182.97 45.488 183.066 45.136 183.066 44.624ZM197.194 26.432H202.618C206.01 26.432 207.706 28.016 207.706 31.184V45.248C207.706 48.416 206.01 50 202.618 50H197.194C193.77 50 192.058 48.416 192.058 45.248V31.184C192.058 28.016 193.77 26.432 197.194 26.432ZM202.378 44.624V31.808C202.378 31.296 202.282 30.96 202.09 30.8C201.898 30.608 201.53 30.512 200.986 30.512H198.778C198.234 30.512 197.866 30.608 197.674 30.8C197.482 30.96 197.386 31.296 197.386 31.808V44.624C197.386 45.136 197.482 45.488 197.674 45.68C197.866 45.84 198.234 45.92 198.778 45.92H200.986C201.53 45.92 201.898 45.84 202.09 45.68C202.282 45.488 202.378 45.136 202.378 44.624ZM220.971 17.888H226.443V50H221.067V47.648C220.683 49.216 219.547 50 217.659 50H216.171C212.907 50 211.275 48.416 211.275 45.248V31.136C211.275 27.968 212.907 26.384 216.171 26.384H217.659C219.387 26.384 220.491 27.056 220.971 28.4V17.888ZM218.043 45.776H219.483C220.475 45.776 220.971 45.248 220.971 44.192V32.24C220.971 31.632 220.859 31.216 220.635 30.992C220.411 30.736 220.027 30.608 219.483 30.608H218.043C217.531 30.608 217.179 30.704 216.987 30.896C216.795 31.056 216.699 31.392 216.699 31.904V44.48C216.699 44.992 216.795 45.344 216.987 45.536C217.179 45.696 217.531 45.776 218.043 45.776ZM113.848 65.432H115.288C118.584 65.432 120.232 67.016 120.232 70.184V89H114.76V70.952C114.76 70.44 114.664 70.104 114.472 69.944C114.28 69.752 113.928 69.656 113.416 69.656H111.976C110.984 69.656 110.488 70.184 110.488 71.24V89H105.064V56.888H110.488V67.448C110.968 66.104 112.088 65.432 113.848 65.432ZM133.692 65.432H139.068V89H133.596V86.984C133.116 88.328 132.012 89 130.284 89H128.796C125.532 89 123.9 87.416 123.9 84.248V70.184C123.9 67.016 125.532 65.432 128.796 65.432H130.284C132.172 65.432 133.308 66.2 133.692 67.736V65.432ZM130.668 84.776H132.108C133.1 84.776 133.596 84.248 133.596 83.192V71.24C133.596 70.184 133.1 69.656 132.108 69.656H130.668C130.156 69.656 129.804 69.752 129.612 69.944C129.42 70.104 129.324 70.44 129.324 70.952V83.48C129.324 83.992 129.42 84.344 129.612 84.536C129.804 84.696 130.156 84.776 130.668 84.776ZM157.959 73.352H152.631V70.952C152.631 70.44 152.535 70.104 152.343 69.944C152.151 69.752 151.799 69.656 151.287 69.656H149.559C149.047 69.656 148.695 69.752 148.503 69.944C148.311 70.104 148.215 70.44 148.215 70.952V83.48C148.215 83.992 148.311 84.344 148.503 84.536C148.695 84.696 149.047 84.776 149.559 84.776H151.287C151.799 84.776 152.151 84.696 152.343 84.536C152.535 84.344 152.631 83.992 152.631 83.48V81.032H157.959V84.248C157.959 87.416 156.215 89 152.727 89H148.023C144.535 89 142.791 87.416 142.791 84.248V70.184C142.791 67.016 144.535 65.432 148.023 65.432H152.727C156.215 65.432 157.959 67.016 157.959 70.184V73.352ZM178.017 65.432L172.737 76.76L178.017 89H172.305L167.217 76.76L172.353 65.432H178.017ZM161.361 89V56.888H166.785V89H161.361Z" fill="url(#paint0_linear_739032_151)"/>
<circle cx="56.9597" cy="58.9597" r="35.4618" transform="rotate(-40 56.9597 58.9597)" fill="url(#paint1_linear_739032_151)" stroke="url(#paint2_linear_739032_151)" stroke-width="3.2797" stroke-miterlimit="3.52509" stroke-linecap="round" stroke-linejoin="round" stroke-dasharray="9.84 9.84"/>
<path fill-rule="evenodd" clip-rule="evenodd" d="M68.6231 0C65.3566 0 62.5473 2.31271 61.9198 5.51835L59.0456 20.2011H55.2808C51.203 20.2011 47.6723 23.0333 46.7878 27.0139L45.2083 34.1214H59.1286L59.902 30.6414H66.8621L66.0888 34.1214H80.0091L80.7497 30.7886C81.9057 25.5869 78.1655 20.6411 72.9605 20.2288L75.3264 8.14269C76.1522 3.92378 72.922 0 68.6231 0ZM79.8158 34.9914H65.8955L55.2619 82.8425H69.1822L79.8158 34.9914ZM58.9353 34.9914H45.015L34.3814 82.8425H48.3017L58.9353 34.9914Z" fill="url(#paint3_linear_739032_151)"/>
<path fill-rule="evenodd" clip-rule="evenodd" d="M35.5568 42.8217H29.8373C26.4349 42.8217 23.5312 45.2815 22.9719 48.6376L22.4115 52H6C2.68629 52 0 54.6863 0 58C0 61.3137 2.68629 64 6 64H20.2015L20.0718 64.778C19.3647 69.0204 22.6363 72.8824 26.9373 72.8824H29.9354L31.8877 62.4421H27.6505L29.7161 53.2619H33.6044L35.5568 42.8217ZM32.7728 62.4421L30.8205 72.8824H79.6224V62.4421H32.7728ZM34.4895 53.2619L36.4419 42.8217H83.1025V53.2619H34.4895Z" fill="url(#paint4_linear_739032_151)"/>
<defs>
<linearGradient id="paint0_linear_739032_151" x1="102.636" y1="19" x2="228.636" y2="89" gradientUnits="userSpaceOnUse">
<stop stop-color="#3B3355"/>
<stop offset="1" stop-color="#9925BA"/>
</linearGradient>
<linearGradient id="paint1_linear_739032_151" x1="56.9597" y1="23.4979" x2="56.9597" y2="94.4214" gradientUnits="userSpaceOnUse">
<stop stop-color="#FF6C11"/>
<stop offset="1" stop-color="#98FF98"/>
</linearGradient>
<linearGradient id="paint2_linear_739032_151" x1="56.9597" y1="23.4979" x2="56.9597" y2="94.4214" gradientUnits="userSpaceOnUse">
<stop stop-color="#FF6C11"/>
<stop offset="1" stop-color="#98FF98"/>
</linearGradient>
<linearGradient id="paint3_linear_739032_151" x1="57.6709" y1="0" x2="57.6709" y2="82.8425" gradientUnits="userSpaceOnUse">
<stop stop-color="#3B3355"/>
<stop offset="1" stop-color="#9925BA"/>
</linearGradient>
<linearGradient id="paint4_linear_739032_151" x1="-30" y1="60.2221" x2="83.1025" y2="75.8824" gradientUnits="userSpaceOnUse">
<stop stop-color="#3B3355"/>
<stop offset="1" stop-color="#9925BA"/>
</linearGradient>
</defs>
</svg>
