<svg width="122" height="72" viewBox="0 0 122 72" fill="none" xmlns="http://www.w3.org/2000/svg">
<path d="M6.23601 28.776H15.452V33H0.668014V2.712H15.068V6.936H6.23601V15.336H13.676V19.608H6.23601V28.776ZM27.7411 0.887999H33.2131V33H27.8371V30.648C27.4531 32.216 26.3171 33 24.4291 33H22.9411C19.6771 33 18.0451 31.416 18.0451 28.248V14.136C18.0451 10.968 19.6771 9.384 22.9411 9.384H24.4291C26.1571 9.384 27.2611 10.056 27.7411 11.4V0.887999ZM24.8131 28.776H26.2531C27.2451 28.776 27.7411 28.248 27.7411 27.192V15.24C27.7411 14.632 27.6291 14.216 27.4051 13.992C27.1811 13.736 26.7971 13.608 26.2531 13.608H24.8131C24.3011 13.608 23.9491 13.704 23.7571 13.896C23.5651 14.056 23.4691 14.392 23.4691 14.904V27.48C23.4691 27.992 23.5651 28.344 23.7571 28.536C23.9491 28.696 24.3011 28.776 24.8131 28.776ZM46.8718 9.432H52.3438V33H46.9678V30.648C46.5838 32.216 45.4478 33 43.5598 33H42.0718C38.8078 33 37.1758 31.416 37.1758 28.248V9.432H42.5998V27.48C42.5998 27.992 42.6958 28.344 42.8878 28.536C43.0798 28.696 43.4318 28.776 43.9438 28.776H45.3838C46.3758 28.776 46.8718 28.248 46.8718 27.192V9.432ZM66.0436 5.16H63.8836C63.3716 5.16 63.0196 5.256 62.8276 5.448C62.6356 5.608 62.5396 5.944 62.5396 6.456V9.432H66.0436V13.656H62.5396V33H57.1156V13.656H54.7156V9.432H57.1156V5.64C57.1156 2.472 58.8436 0.887999 62.2996 0.887999H66.0436V5.16ZM73.2459 9.432H78.6699C82.0619 9.432 83.7579 11.016 83.7579 14.184V28.248C83.7579 31.416 82.0619 33 78.6699 33H73.2459C69.8219 33 68.1099 31.416 68.1099 28.248V14.184C68.1099 11.016 69.8219 9.432 73.2459 9.432ZM78.4299 27.624V14.808C78.4299 14.296 78.3339 13.96 78.1419 13.8C77.9499 13.608 77.5819 13.512 77.0379 13.512H74.8299C74.2859 13.512 73.9179 13.608 73.7259 13.8C73.5339 13.96 73.4379 14.296 73.4379 14.808V27.624C73.4379 28.136 73.5339 28.488 73.7259 28.68C73.9179 28.84 74.2859 28.92 74.8299 28.92H77.0379C77.5819 28.92 77.9499 28.84 78.1419 28.68C78.3339 28.488 78.4299 28.136 78.4299 27.624ZM92.5584 9.432H97.9824C101.374 9.432 103.07 11.016 103.07 14.184V28.248C103.07 31.416 101.374 33 97.9824 33H92.5584C89.1344 33 87.4224 31.416 87.4224 28.248V14.184C87.4224 11.016 89.1344 9.432 92.5584 9.432ZM97.7424 27.624V14.808C97.7424 14.296 97.6464 13.96 97.4544 13.8C97.2624 13.608 96.8944 13.512 96.3504 13.512H94.1424C93.5984 13.512 93.2304 13.608 93.0384 13.8C92.8464 13.96 92.7504 14.296 92.7504 14.808V27.624C92.7504 28.136 92.8464 28.488 93.0384 28.68C93.2304 28.84 93.5984 28.92 94.1424 28.92H96.3504C96.8944 28.92 97.2624 28.84 97.4544 28.68C97.6464 28.488 97.7424 28.136 97.7424 27.624ZM116.335 0.887999H121.807V33H116.431V30.648C116.047 32.216 114.911 33 113.023 33H111.535C108.271 33 106.639 31.416 106.639 28.248V14.136C106.639 10.968 108.271 9.384 111.535 9.384H113.023C114.751 9.384 115.855 10.056 116.335 11.4V0.887999ZM113.407 28.776H114.847C115.839 28.776 116.335 28.248 116.335 27.192V15.24C116.335 14.632 116.223 14.216 115.999 13.992C115.775 13.736 115.391 13.608 114.847 13.608H113.407C112.895 13.608 112.543 13.704 112.351 13.896C112.159 14.056 112.063 14.392 112.063 14.904V27.48C112.063 27.992 112.159 28.344 112.351 28.536C112.543 28.696 112.895 28.776 113.407 28.776ZM9.21201 48.432H10.652C13.948 48.432 15.596 50.016 15.596 53.184V72H10.124V53.952C10.124 53.44 10.028 53.104 9.83601 52.944C9.64401 52.752 9.29201 52.656 8.78001 52.656H7.34001C6.34801 52.656 5.85201 53.184 5.85201 54.24V72H0.428014V39.888H5.85201V50.448C6.33201 49.104 7.45201 48.432 9.21201 48.432ZM29.0559 48.432H34.4319V72H28.9599V69.984C28.4799 71.328 27.3759 72 25.6479 72H24.1599C20.8959 72 19.2639 70.416 19.2639 67.248V53.184C19.2639 50.016 20.8959 48.432 24.1599 48.432H25.6479C27.5359 48.432 28.6719 49.2 29.0559 50.736V48.432ZM26.0319 67.776H27.4719C28.4639 67.776 28.9599 67.248 28.9599 66.192V54.24C28.9599 53.184 28.4639 52.656 27.4719 52.656H26.0319C25.5199 52.656 25.1679 52.752 24.9759 52.944C24.7839 53.104 24.6879 53.44 24.6879 53.952V66.48C24.6879 66.992 24.7839 67.344 24.9759 67.536C25.1679 67.696 25.5199 67.776 26.0319 67.776ZM53.3225 56.352H47.9945V53.952C47.9945 53.44 47.8985 53.104 47.7065 52.944C47.5145 52.752 47.1625 52.656 46.6505 52.656H44.9225C44.4105 52.656 44.0585 52.752 43.8665 52.944C43.6745 53.104 43.5785 53.44 43.5785 53.952V66.48C43.5785 66.992 43.6745 67.344 43.8665 67.536C44.0585 67.696 44.4105 67.776 44.9225 67.776H46.6505C47.1625 67.776 47.5145 67.696 47.7065 67.536C47.8985 67.344 47.9945 66.992 47.9945 66.48V64.032H53.3225V67.248C53.3225 70.416 51.5785 72 48.0905 72H43.3865C39.8985 72 38.1545 70.416 38.1545 67.248V53.184C38.1545 50.016 39.8985 48.432 43.3865 48.432H48.0905C51.5785 48.432 53.3225 50.016 53.3225 53.184V56.352ZM73.3809 48.432L68.1009 59.76L73.3809 72H67.6689L62.5809 59.76L67.7169 48.432H73.3809ZM56.7249 72V39.888H62.1489V72H56.7249Z" fill="url(#paint0_linear_739022_537)"/>
<defs>
<linearGradient id="paint0_linear_739022_537" x1="-2" y1="2" x2="124" y2="72" gradientUnits="userSpaceOnUse">
<stop stop-color="#3B3355"/>
<stop offset="1" stop-color="#9925BA"/>
</linearGradient>
</defs>
</svg>
